<svg width="1200" height="630" viewBox="0 0 1200 630" fill="none" xmlns="http://www.w3.org/2000/svg">
  <!-- Background -->
  <rect width="1200" height="630" fill="url(#gradient)"/>
  
  <!-- Gradient definition -->
  <defs>
    <linearGradient id="gradient" x1="0%" y1="0%" x2="100%" y2="100%">
      <stop offset="0%" style="stop-color:#dbeafe;stop-opacity:1" />
      <stop offset="100%" style="stop-color:#2563eb;stop-opacity:1" />
    </linearGradient>
  </defs>
  
  <!-- Logo -->
  <rect x="50" y="50" width="80" height="80" rx="15" fill="#2563eb"/>
  <path d="M90 70C86 70 82.5 72.5 82.5 76.5V80H86V76.5C86 74.5 87.5 73 90 73C92.5 73 94 74.5 94 76.5V80H97.5V76.5C97.5 72.5 94 70 90 70Z" fill="white"/>
  <path d="M78 84V96C78 98.5 80 100.5 82.5 100.5H97.5C100 100.5 102 98.5 102 96V84H78Z" fill="white"/>
  <circle cx="84" cy="90" r="2" fill="#2563eb"/>
  <circle cx="96" cy="90" r="2" fill="#2563eb"/>
  <path d="M86 94C86 95 87 96 88 96H92C93 96 94 95 94 94" stroke="#2563eb" stroke-width="2" stroke-linecap="round"/>
  
  <!-- Main text -->
  <text x="200" y="150" font-family="Arial, sans-serif" font-size="48" font-weight="bold" fill="white">
    Smile Flow
  </text>
  
  <!-- Subtitle -->
  <text x="200" y="200" font-family="Arial, sans-serif" font-size="24" fill="white" opacity="0.9">
    Transform Your Smile in Just 1 Day
  </text>
  
  <!-- Description -->
  <text x="200" y="250" font-family="Arial, sans-serif" font-size="18" fill="white" opacity="0.8">
    Professional dental implants and smile makeovers
  </text>
  <text x="200" y="280" font-family="Arial, sans-serif" font-size="18" fill="white" opacity="0.8">
    Trusted by 1,000+ patients • 4.9⭐ Rating
  </text>
  
  <!-- Features -->
  <text x="200" y="350" font-family="Arial, sans-serif" font-size="16" fill="white" opacity="0.9">
    ✓ Same-Day Results
  </text>
  <text x="200" y="380" font-family="Arial, sans-serif" font-size="16" fill="white" opacity="0.9">
    ✓ FREE Consultation
  </text>
  <text x="200" y="410" font-family="Arial, sans-serif" font-size="16" fill="white" opacity="0.9">
    ✓ Lifetime Warranty
  </text>
  
  <!-- CTA -->
  <rect x="200" y="450" width="200" height="50" rx="25" fill="white"/>
  <text x="300" y="480" font-family="Arial, sans-serif" font-size="18" font-weight="bold" fill="#2563eb" text-anchor="middle">
    Start Your Quiz
  </text>
</svg>
